PathFileType  4	(X/Y/Z) C:\Users\antoi\Documents\MyRepositories\mobilecap\ResultsAnalysis
DataRate	CameraRate	NumFrames	NumMarkers	Units	OrigDataRate	OrigDataStartFrame	OrigNumFrames
100.0	100.0	6	51	mm	100.0	989	1318
Frame#	Time	r_knee			r_shank_antsup			r_ankle			r_calc			r_5meta			r_toe			L_knee			L_shank_antsup			L_ankle			L_calc			L_5meta			L_toe			r_sh2			r_sh3			r_sh4			L_sh2			L_sh3			r_thigh1			r_thigh2			r_thigh3			r_thigh4			r_thigh5			L_thigh1			L_thigh2			L_thigh3			L_thigh4			r.ASIS			r.PSIS			L.ASIS			L.PSIS			C7			R_Shoulder			L_Shoulder			R_Sternum			L_Sternum			R_humerus			R_elbow_med			R_elbow_lat			R_forearm			R_wrist_radius			R_wrist_ulna			L_humerus			L_elbow_med			L_elbow_lat			L_forearm			L_wrist_radius			L_wrist_ulna			R_HJC			L_HJC			R_HJC_reg			L_HJC_reg			
		X1	Y1	Z1	X2	Y2	Z2	X3	Y3	Z3	X4	Y4	Z4	X5	Y5	Z5	X6	Y6	Z6	X7	Y7	Z7	X8	Y8	Z8	X9	Y9	Z9	X10	Y10	Z10	X11	Y11	Z11	X12	Y12	Z12	X13	Y13	Z13	X14	Y14	Z14	X15	Y15	Z15	X16	Y16	Z16	X17	Y17	Z17	X18	Y18	Z18	X19	Y19	Z19	X20	Y20	Z20	X21	Y21	Z21	X22	Y22	Z22	X23	Y23	Z23	X24	Y24	Z24	X25	Y25	Z25	X26	Y26	Z26	X27	Y27	Z27	X28	Y28	Z28	X29	Y29	Z29	X30	Y30	Z30	X31	Y31	Z31	X32	Y32	Z32	X33	Y33	Z33	X34	Y34	Z34	X35	Y35	Z35	X36	Y36	Z36	X37	Y37	Z37	X38	Y38	Z38	X39	Y39	Z39	X40	Y40	Z40	X41	Y41	Z41	X42	Y42	Z42	X43	Y43	Z43	X44	Y44	Z44	X45	Y45	Z45	X46	Y46	Z46	X47	Y47	Z47	X48	Y48	Z48	X49	Y49	Z49	X50	Y50	Z50	X51	Y51	Z51	

989	9.88000000	-222.70713	500.90469	-486.66790	-178.79155	435.64577	-485.24159	-264.30059	102.58621	-425.48630	-333.55779	65.50976	-456.73844	-163.46094	44.43023	-379.93447	-113.90097	68.32189	-435.45529	-247.59829	496.97376	-961.30833	-217.91235	408.59567	-991.16733	-289.83136	100.94562	-1011.21128	-342.17918	61.77496	-955.00848	-195.50181	41.55819	-1074.23249	-144.05316	69.42953	-1032.31459	-209.31374	331.08243	-442.29293	-256.54045	455.27051	-466.71868	-279.56389	346.23665	-441.45457	-301.60973	423.20378	-966.10516	-316.04524	304.80127	-995.33610	-238.11188	819.73532	-519.59506	-218.94421	710.69685	-501.48972	-272.89683	680.21080	-478.66227	-349.22075	796.75761	-523.44931	-323.72246	684.35058	-502.34891	-285.34218	767.82116	-946.36839	-245.54757	636.53520	-962.57336	-373.95971	731.94272	-880.99250	-332.09364	600.40710	-910.40119	-219.18226	945.60357	-592.80977	-392.81546	1016.28377	-675.90201	-215.58677	916.96774	-839.55808	-395.55561	1016.85419	-778.13135	-247.40577	1396.03072	-745.02995	-158.37151	1369.04724	-580.86606	-173.47707	1377.45706	-905.55182	-114.16185	1338.33735	-718.84597	-111.19200	1338.10593	-761.45622	-132.06916	1256.43323	-502.68134	-147.64705	1032.75913	-503.43944	-103.40646	1069.50440	-441.55044	-40.27197	1142.06884	-542.32438	6.69142	1201.54149	-642.31004	38.70646	1186.59895	-643.25291	-134.67163	1281.41021	-977.68879	-130.79298	1037.97239	-971.66350	-87.66564	1086.99905	-1028.70126	-44.38309	1143.36493	-944.05341	17.37448	1199.26115	-826.22677	47.20560	1183.84941	-832.88658	-310.69462	882.38288	-610.95794	-308.82789	865.73868	-816.74850	-300.17590	873.37308	-624.97279	-304.56935	874.28793	-788.87494	
990	9.89000000	-224.48496	501.05776	-488.02256	-180.60397	436.07771	-486.42761	-264.44082	102.57192	-425.61686	-333.60041	65.47738	-456.65665	-163.45651	44.44081	-379.90547	-113.90788	68.30089	-435.43349	-248.33784	497.19265	-961.27444	-218.63511	409.05354	-991.13461	-289.89951	100.90612	-1011.19087	-342.18723	61.72946	-954.99779	-195.52118	41.55785	-1074.16164	-144.06887	69.50917	-1032.36563	-210.31810	331.42456	-443.22725	-258.19441	455.44579	-467.95333	-280.91390	346.36350	-442.47187	-302.57268	423.17085	-965.86584	-316.57698	304.93095	-995.27755	-237.37168	819.79373	-521.45860	-219.13340	710.70117	-503.22888	-273.30414	680.73640	-480.44368	-348.56537	797.90508	-525.48709	-324.06095	685.24225	-504.25873	-284.12632	768.40887	-947.36263	-245.26525	636.83821	-963.11576	-373.06332	733.47678	-882.15117	-332.00050	601.40432	-910.81599	-217.90211	946.72025	-594.12659	-391.66252	1016.64316	-677.55826	-213.75200	918.26849	-840.89701	-394.31706	1017.39751	-779.73342	-248.99505	1397.58814	-746.83989	-160.21021	1370.79317	-582.35877	-174.98770	1378.77938	-907.17388	-115.58969	1340.75560	-720.26417	-112.63164	1340.50077	-763.01888	-134.28470	1257.77663	-503.79655	-150.57912	1033.84149	-505.62033	-106.87073	1070.43167	-442.96178	-42.88612	1142.78014	-543.51785	4.84886	1201.99701	-643.10399	36.73228	1186.66995	-644.24201	-136.18270	1282.39790	-979.46056	-133.58562	1038.90966	-972.73478	-90.37795	1087.76356	-1030.42259	-46.61322	1143.59079	-945.67577	15.61398	1199.01314	-827.86354	45.32483	1183.24310	-834.37558	-309.12269	883.11016	-612.51345	-306.80834	866.62806	-818.31235	-298.41353	873.99661	-626.48118	-302.67221	875.20700	-790.39140	
991	9.90000000	-226.26350	501.17919	-489.47241	-182.30588	436.16764	-487.63749	-264.57648	102.56211	-425.71727	-333.68931	65.41214	-456.45108	-163.45864	44.43609	-379.85636	-113.91581	68.29135	-435.41549	-249.20457	497.37064	-961.16486	-219.35782	409.73534	-991.23135	-289.96984	100.88300	-1011.17177	-342.18944	61.67176	-954.98652	-195.52090	41.55577	-1074.09273	-144.09807	69.55855	-1032.35175	-211.46067	331.80147	-444.05421	-259.92152	455.48857	-469.40152	-282.30702	346.35141	-443.58436	-303.58529	423.14908	-965.62924	-317.20977	304.86593	-995.12902	-236.66728	820.04996	-523.01512	-219.31975	710.82727	-504.75423	-273.68681	681.20876	-482.08129	-347.98926	798.97028	-527.26823	-324.36314	685.99784	-506.23162	-282.89831	769.03372	-948.61877	-245.00907	637.06074	-963.41246	-372.12699	734.96004	-883.29037	-331.98310	602.44251	-911.22621	-216.61148	947.60384	-595.44881	-390.55235	1016.96492	-679.05110	-211.93696	919.59480	-842.23914	-393.15789	1017.86330	-781.20542	-250.66627	1399.04400	-748.64344	-161.93970	1372.51330	-583.68622	-176.43401	1380.09694	-908.83814	-117.02269	1342.95649	-721.79070	-113.56307	1343.56842	-764.05687	-136.52061	1258.90733	-504.96811	-153.75592	1035.49563	-506.57443	-110.21216	1071.36579	-444.13716	-45.47044	1143.40203	-544.68979	2.90818	1202.31548	-644.06115	34.67592	1186.71810	-645.10548	-137.69420	1283.29417	-981.31192	-136.29179	1039.86337	-973.80934	-92.99175	1088.58383	-1032.06878	-48.85852	1143.77604	-947.21608	13.92217	1198.82932	-829.57665	43.50365	1182.75425	-835.98099	-307.55341	883.65770	-614.07927	-304.85266	867.52576	-819.90096	-296.69720	874.65970	-627.94913	-300.87754	876.10141	-791.84627	
992	9.91000000	-228.05951	501.27880	-491.02895	-183.87834	436.23421	-488.91635	-264.71600	102.58800	-425.83359	-333.72514	65.33821	-456.40366	-163.45776	44.41398	-379.82188	-113.94003	68.29832	-435.41904	-250.12891	497.49559	-960.98504	-220.22189	410.18457	-991.10002	-290.08293	100.89726	-1011.26763	-342.19966	61.61323	-954.97801	-195.52364	41.55620	-1074.08316	-144.13470	69.57541	-1032.30284	-212.74667	332.17334	-444.91553	-261.75557	455.47469	-470.83359	-283.70730	346.22546	-444.73904	-304.63206	423.14831	-965.49673	-317.94271	304.71247	-994.90197	-236.04380	820.38226	-524.36528	-219.47743	710.91509	-506.23767	-274.11435	681.63193	-483.67705	-347.48103	799.87837	-529.15271	-324.68057	686.71419	-508.14184	-281.78647	769.57732	-949.87137	-244.76853	637.21243	-963.59042	-371.23148	736.38841	-884.45281	-332.01735	603.47772	-911.56220	-215.27599	948.41283	-596.67493	-389.41412	1017.43136	-680.45560	-210.18809	920.87924	-843.40460	-391.97357	1018.41559	-782.72311	-252.32680	1400.36949	-750.30639	-163.57451	1374.17025	-584.82771	-177.85084	1381.39489	-910.50595	-118.45322	1344.98482	-723.20521	-114.17792	1346.71619	-764.92792	-138.66757	1259.98190	-506.01472	-157.42470	1037.76870	-506.13996	-113.44322	1072.24059	-445.29806	-47.93013	1143.86590	-545.78502	0.86071	1202.05658	-646.14769	32.56501	1186.67305	-646.06413	-139.69185	1284.20756	-982.79915	-139.01103	1041.03960	-975.64014	-95.47448	1089.44242	-1033.64433	-50.95973	1144.17313	-948.79499	12.24782	1198.69488	-831.21475	41.71807	1182.46113	-837.66563	-306.07245	884.25510	-615.55215	-302.97587	868.44058	-821.39343	-295.06911	875.45807	-629.27294	-299.16919	877.03417	-793.10066	
993	9.92000000	-229.84120	501.36620	-492.48849	-185.48557	436.56711	-490.22189	-264.87368	102.64959	-425.97451	-333.70420	65.35844	-456.49465	-163.45698	44.40223	-379.80385	-113.97842	68.29326	-435.41422	-251.00905	497.67509	-960.85170	-221.16756	410.39107	-990.85566	-290.22739	100.94259	-1011.45175	-342.23373	61.56246	-954.98372	-195.54077	41.56554	-1074.15124	-144.15322	69.58213	-1032.28798	-213.98527	332.54371	-445.69759	-263.59925	455.54395	-472.05198	-285.06081	346.16371	-445.71425	-305.66275	423.16823	-965.50274	-318.65700	304.56945	-994.94417	-235.40438	820.48604	-525.85407	-219.63441	710.89987	-507.74436	-274.62447	682.03651	-485.29557	-346.99033	800.75881	-531.18298	-325.05640	687.48430	-509.90391	-280.66324	770.14369	-950.93233	-244.53923	637.41824	-963.92412	-370.44062	737.83901	-885.54831	-332.05308	604.52556	-911.95476	-213.89664	949.20690	-597.87105	-388.18027	1017.88839	-681.85580	-208.42525	922.16415	-844.57368	-390.72102	1019.04340	-784.22619	-253.90675	1401.62408	-751.74599	-165.16600	1375.63543	-585.87504	-179.32051	1382.57929	-912.10180	-119.84097	1346.91235	-724.42752	-115.42620	1348.44993	-766.31649	-140.58815	1261.10629	-506.81132	-160.96776	1039.63797	-506.05825	-116.55518	1072.97797	-446.42927	-50.27120	1144.22822	-546.74629	-1.19051	1201.26845	-649.12906	30.53659	1186.46152	-647.15846	-142.06269	1285.18594	-983.84882	-141.54986	1042.16015	-977.54376	-97.79229	1090.35994	-1035.44783	-52.84069	1144.73680	-950.54141	10.55154	1198.58034	-832.70390	39.97376	1182.31205	-839.43405	-304.56124	884.85296	-617.02613	-301.07847	869.38391	-822.88792	-293.37350	876.14740	-630.60135	-297.43828	877.99409	-794.37848	
994	9.93000000	-231.62498	501.44060	-493.78461	-187.25605	437.11428	-491.48328	-265.04497	102.74446	-426.06824	-333.68988	65.45739	-456.50000	-163.46903	44.38694	-379.79815	-114.00265	68.26680	-435.38320	-251.87964	497.94825	-960.80384	-222.13267	410.65363	-990.79014	-290.33525	100.97258	-1011.55804	-342.25713	61.55207	-955.00235	-195.55224	41.57077	-1074.25691	-144.14720	69.56735	-1032.33398	-215.09821	332.90952	-446.47644	-265.41432	455.63085	-473.29302	-286.21659	346.37481	-446.39322	-306.67194	423.18093	-965.51330	-319.35880	304.44288	-995.19151	-234.63813	820.41557	-527.42246	-219.80571	710.84871	-509.06547	-275.21017	682.40971	-486.89034	-346.49528	801.67246	-533.08299	-325.46082	688.21899	-511.62228	-279.43062	770.76867	-951.91971	-244.30716	637.72189	-964.49315	-369.67333	739.32567	-886.61298	-332.08684	605.59998	-912.55857	-212.51827	949.91152	-599.08286	-386.92989	1018.15100	-683.19775	-206.46692	923.73398	-846.47640	-389.48209	1019.57495	-785.47206	-255.39049	1402.86853	-753.01160	-166.69613	1376.87299	-586.84272	-180.82754	1383.65482	-913.65770	-121.17019	1348.73884	-725.56979	-117.42238	1349.00730	-768.03522	-142.37486	1262.06915	-507.61990	-163.97197	1040.61950	-507.24809	-119.43651	1073.71516	-447.26084	-52.52826	1144.53229	-547.60849	-3.12017	1200.73159	-651.28564	28.62638	1186.15344	-648.19880	-144.05918	1286.14774	-984.88785	-143.78237	1043.01141	-978.98429	-99.97706	1091.33049	-1037.50410	-54.61539	1145.28181	-952.38265	8.90459	1198.51590	-834.24611	38.28759	1182.24911	-841.25697	-302.77932	885.18778	-618.80525	-299.04077	870.51250	-824.71917	-291.55736	876.57465	-632.11402	-295.65435	878.86094	-796.28753	
